<?xml version="1.0" standalone="no"?>
<!DOCTYPE svg PUBLIC "-//W3C//DTD SVG 20010904//EN"
 "http://www.w3.org/TR/2001/REC-SVG-20010904/DTD/svg10.dtd">
<svg version="1.0" xmlns="http://www.w3.org/2000/svg"
 width="153.000000pt" height="82.000000pt" viewBox="0 0 153.000000 82.000000"
 preserveAspectRatio="xMidYMid meet">

<g transform="translate(0.000000,82.000000) scale(0.100000,-0.100000)"
fill="#000000" stroke="none">
<path d="M298 483 c-20 -90 -34 -133 -49 -150 -24 -24 -58 -30 -88 -14 -15 9
-19 3 -30 -41 -6 -28 -9 -53 -7 -55 2 -3 22 -7 43 -10 78 -10 165 33 198 98 9
16 27 81 40 146 14 65 28 126 31 136 5 15 -2 17 -53 17 l-58 0 -27 -127z"/>
<path d="M525 598 c-6 -19 -75 -357 -75 -368 0 -6 22 -10 48 -10 l48 0 30 143
29 142 6 -75 c4 -41 7 -106 8 -143 l1 -68 55 3 56 3 64 140 c36 77 65 134 65
127 0 -7 -11 -64 -25 -128 -14 -64 -25 -122 -25 -130 0 -10 14 -14 53 -14 l54
0 38 183 c21 100 40 188 42 195 4 9 -17 12 -84 12 l-90 0 -53 -122 c-29 -68
-57 -127 -62 -133 -4 -5 -8 15 -8 46 0 31 -3 90 -6 132 l-7 77 -79 0 c-54 0
-80 -4 -83 -12z"/>
<path d="M1193 598 c-6 -7 -47 -80 -93 -163 -45 -82 -91 -165 -102 -182 l-20
-33 64 0 c64 0 64 0 81 35 16 34 18 35 76 35 l60 0 7 -35 c6 -35 6 -35 60 -35
65 0 62 -19 34 210 -11 91 -20 168 -20 173 0 13 -137 8 -147 -5z m60 -150 l6
-68 -39 0 -38 0 31 69 c18 38 32 69 33 68 1 -1 4 -32 7 -69z"/>
</g>
</svg>
